/* XPM */
static char *window1685664904[] = {
/* columns rows colors chars-per-pixel */
"32 32 135 2 ",
"   c gray1",
".  c gray8",
"X  c gray9",
"o  c #181818",
"O  c gray50",
"+  c #909090",
"@  c #7E7E7E",
"#  c #7C7B7B",
"$  c gray49",
"%  c #7C7C7C",
"&  c #8B8C8C",
"*  c #3A3F3F",
"=  c #2A2F2F",
"-  c #1B1B1B",
";  c gray15",
":  c gray14",
">  c #1A1B1B",
",  c #2A3030",
"<  c #2E3434",
"1  c #2D3334",
"2  c #393F3F",
"3  c #9DC3C7",
"4  c #9AC1C5",
"5  c #262B2B",
"6  c #7B7B7B",
"7  c #6A6A6A",
"8  c #222728",
"9  c #99BFC3",
"0  c #B1DCE1",
"q  c #B0DBDF",
"w  c #9BC1C5",
"e  c #2D3333",
"r  c #B8DFE3",
"t  c #B3DEE3",
"y  c #8F8F8E",
"u  c #282E2F",
"i  c #B1DDE1",
"p  c #CCFEFF",
"a  c #CBFCFF",
"s  c #B3DFE3",
"d  c #B2DEE3",
"f  c #333434",
"g  c #D1E0E1",
"h  c #BBDEE1",
"j  c #2D3233",
"k  c #8E8D8D",
"l  c gray48",
"z  c #292E2F",
"x  c #B5DBDF",
"c  c #C9FAFF",
"v  c #2C3233",
"b  c #2E3334",
"n  c #BCDEE1",
"m  c #D6E0E1",
"M  c #323333",
"N  c #8D8D8D",
"B  c #2E2F2F",
"V  c #D5DEDF",
"C  c #D6FDFF",
"Z  c #B7DDE1",
"A  c #D5E0E1",
"S  c #2F2F2F",
"D  c #DFDFDF",
"F  c #F6FFFF",
"G  c #CEFAFF",
"H  c #CAFCFF",
"J  c #B2DDE1",
"K  c #B6DDE1",
"L  c #E0DFDF",
"P  c #FCFFFF",
"I  c #D4FBFF",
"U  c #AFDBDF",
"Y  c #DADFDF",
"T  c white",
"R  c #F4FEFF",
"E  c #D5FDFF",
"W  c #BBDCDF",
"Q  c #FBFFFF",
"!  c #F5FFFF",
"~  c #F7FFFF",
"^  c #FDFFFF",
"/  c #BDDDE1",
"(  c #292E2E",
")  c #8E8E8D",
"_  c #24292A",
"`  c #9ABFC3",
"'  c #E1E1E1",
"]  c #BEC3C3",
"[  c #2D2E2E",
"{  c #242A2A",
"}  c #252626",
"|  c gray57",
" . c #808080",
".. c #212222",
"X. c #2A2A2A",
"o. c #252A2A",
"O. c DimGray",
"+. c #7A7979",
"@. c gray63",
"#. c gray62",
"$. c #797878",
"%. c #797978",
"&. c #797979",
"*. c gray47",
"=. c gray16",
"-. c gray65",
";. c #A5A5A5",
":. c #272727",
">. c #929292",
",. c gray58",
"<. c gray64",
"1. c #919090",
"2. c #959494",
"3. c #282E2E",
"4. c #818181",
"5. c #282D2E",
"6. c #313333",
"7. c #292D2E",
"8. c #B6DBDF",
"9. c #9FBFC3",
"0. c #D1FDFF",
"q. c #F1FFFF",
"w. c #BCDDE1",
"e. c #CDFEFF",
"r. c #CAFAFF",
"t. c #D0DEDF",
"y. c #D2FEFF",
"u. c gray20",
"i. c #8E8E8E",
"p. c #282828",
"a. c #DBE0E1",
"s. c #C3C3C3",
"d. c gray17",
"f. c #2F3030",
"g. c gray19",
/* pixels */
"  . X o o o o o o o o o o o o o o o o o o o o o o o o o o X .   ",
". O + @ # $ % % $ # # # # # $ % % $ # # # # # $ % % $ # @ + O . ",
"X + & * = - ; : > , < 1 < , - ; : > , < 1 < , - ; : > = * & + X ",
"o @ 2 3 4 5 6 7 8 9 0 q 0 9 5 6 7 8 9 0 q 0 9 5 6 7 8 w 3 * @ o ",
"o 6 e r t e y 6 u i p a p 0 e y 6 u i p a p 0 e y 6 u s d e 6 o ",
"o 6 f g h j k l z x a c a q v k l u q a c a q v k l u i i 1 # o ",
"o # b n m M N l B V C c a q v k l u q a c a q v k l u i i 1 # o ",
"o # 1 Z A M N l S D F G H q v k l u q a c a q v k l u i i 1 # o ",
"o # 1 J K j k l S L P I a U v k l u q a c a q v k l u i i 1 # o ",
"o # 1 i i v k l B Y T R E q v k l u q a c a q v k l u i i 1 # o ",
"o # 1 i i v k l z W Q T ! x v k l u q a c a q v k l u i i 1 # o ",
"o # < t t j k l u Z ~ T ^ / e k l u i p a p 0 j k l u s t < # o ",
"o # , w w ( ) l _ ` n Y ' ] [ k l _ 9 i q i 9 ( ) l _ w w , # o ",
"o $ > 8 { } |  ..._ z B S X.; |  ..._ u u u _ } |  ...o.8 > $ o ",
"o % : O.+. .@.#.O $.%.&.*.*. .@.#.O $.%.&.%.$. .@.#.O +.O.: % o ",
"o % =.+ -.;.-.-.;.;.;.;.;.;.;.-.-.;.;.;.;.;.;.;.-.-.;.-.+ =.% o ",
"o % :.@ >.,.<.@.,.1.1.1.+ 1.2.<.@.,.1.1.1.1.1.,.<.@.,.>.@ :.% o ",
"o $ - 5 3.=.>.4.} 5.v j 6.7.=.>.4.} 5.v v v 5.=.>.4.} ( 5 - $ o ",
"o # , w 4 5.k l _ 9 0 8.A 9.5.k l _ 9 0 q 0 9 5.k l _ w w , # o ",
"o # < t t j k l u i p 0.q.w.e k l z K e.H p 0 j k l u s t < # o ",
"o # 1 i i v k l u q a r.E t.M N l B V C c a q v k l u i i 1 # o ",
"o # 1 i i v k l u q a c a x j k l S D F G H q v k l u i i 1 # o ",
"o # 1 i i v k l u q a c a U v k l S L P I a U v k l u i i 1 # o ",
"o # 1 i i v k l u q a c a q v k l B Y T R E q v k l u i i 1 # o ",
"o # 1 i i v k l u q a c a q v k l z W Q T ! x v k l u i i 1 # o ",
"o # 1 i i v k l u q a c a q v k l u x ! T Q W j k l u i i 1 # o ",
"o # 1 i i v k l u q a c a q v k l z x C R T Y M N l u i i 1 # o ",
"o 6 e d t e y 6 u i p a p 0 e y 6 S A y.C ^ ' u.i.6 u s d e 6 o ",
"o @ * 3 4 5 6 7 8 9 0 q 0 9 5 6 7 p.] Z x a.s.d.6 7 8 w 3 * @ o ",
"X + & * = - ; : > , < 1 < , - ; : - f.< b f g.- ; : > = * & + X ",
". O + @ # $ % % $ # # # # # $ % % $ 6 # # 6 6 $ % % $ # @ + O . ",
"  . X o o o o o o o o o o o o o o o o o o o o o o o o o o X .   "
};
